<?xml version="1.0" encoding="iso-8859-1"?>
<!-- Generator: Adobe Illustrator 19.0.0, SVG Export Plug-In . SVG Version: 6.00 Build 0)  -->
<svg version="1.1" id="Layer_1" xmlns="http://www.w3.org/2000/svg" xmlns:xlink="http://www.w3.org/1999/xlink" x="0px" y="0px"
	 viewBox="0 0 512 512" style="enable-background:new 0 0 512 512;" xml:space="preserve">
<g>
	<path style="fill:#507C5C;" d="M305.818,480.549h-43.672c-8.008,0-14.5-6.492-14.5-14.5c0-8.008,6.492-14.5,14.5-14.5h43.672
		c24.633,0,48.235-7.502,68.249-21.697c31.235-22.15,49.882-58.202,49.882-96.435c0-8.008,6.493-14.5,14.5-14.5
		s14.5,6.492,14.5,14.5c0,47.617-23.218,92.511-62.107,120.092C365.898,471.198,336.498,480.549,305.818,480.549z"/>
	<path style="fill:#507C5C;" d="M73.546,369.892c-8.008,0-14.5-6.492-14.5-14.5v-208.26C59.045,66.003,125.049,0,206.179,0h99.641
		c53.043,0,102.189,28.732,128.256,74.983c3.931,6.977,1.465,15.82-5.513,19.752c-6.975,3.931-15.82,1.465-19.752-5.512
		C387.873,52.077,348.411,29,305.818,29h-99.641C141.04,29,88.044,81.994,88.044,147.132v208.26
		C88.046,363.401,81.554,369.892,73.546,369.892z"/>
</g>
<path style="fill:#CFF09E;" d="M410.093,370.878L410.093,370.878c15.264,0,27.639-12.374,27.639-27.639v10.723h8.584
	c19.485,0,35.282-15.796,35.282-35.282v-75.949c0-19.485-15.797-35.282-35.282-35.282h-8.584v10.723
	c0-15.264-12.374-27.639-27.639-27.639l0,0c-15.264,0-27.639,12.374-27.639,27.639V343.24
	C382.455,358.504,394.829,370.878,410.093,370.878z"/>
<path style="fill:#507C5C;" d="M410.093,385.377c-23.235,0-42.139-18.904-42.139-42.139V218.171
	c0-23.235,18.902-42.139,42.139-42.139c13.784,0,26.042,6.653,33.736,16.916h2.488c27.45,0,49.782,22.332,49.782,49.782v75.949
	c0,27.45-22.332,49.782-49.782,49.782h-2.488C436.136,378.724,423.876,385.377,410.093,385.377z M410.093,205.034
	c-7.244,0-13.139,5.893-13.139,13.139V343.24c0,7.244,5.893,13.139,13.139,13.139s13.139-5.893,13.139-13.139
	c0-8.008,6.493-14.5,14.5-14.5c6.458,0,11.932,4.224,13.807,10.059c8.939-2.323,15.559-10.462,15.559-20.118v-75.949
	c0-9.656-6.619-17.795-15.559-20.118c-1.876,5.835-7.349,10.059-13.807,10.059c-8.007,0-14.5-6.492-14.5-14.5
	C423.231,210.928,417.338,205.034,410.093,205.034z"/>
<path style="fill:#CFF09E;" d="M101.905,370.878L101.905,370.878c-15.264,0-27.639-12.374-27.639-27.639v10.723h-8.584
	c-19.485,0-35.282-15.796-35.282-35.282v-75.949c0-19.485,15.796-35.282,35.282-35.282h8.584v10.723
	c0-15.264,12.374-27.639,27.639-27.639l0,0c15.264,0,27.639,12.374,27.639,27.639V343.24
	C129.542,358.504,117.169,370.878,101.905,370.878z"/>
<path style="fill:#507C5C;" d="M101.905,385.377c-13.784,0-26.044-6.653-33.736-16.916h-2.487c-27.45,0-49.782-22.332-49.782-49.782
	V242.73c0-27.45,22.332-49.782,49.782-49.782h2.487c7.692-10.262,19.952-16.916,33.736-16.916c23.235,0,42.139,18.904,42.139,42.139
	v125.067C144.044,366.475,125.14,385.377,101.905,385.377z M88.766,343.24c0,7.244,5.894,13.139,13.139,13.139
	s13.139-5.893,13.139-13.139V218.173c0-7.244-5.894-13.139-13.139-13.139s-13.139,5.893-13.139,13.139c0,8.008-6.492,14.5-14.5,14.5
	c-6.458,0-11.932-4.224-13.807-10.059c-8.939,2.321-15.559,10.46-15.559,20.118v75.949c0,9.656,6.619,17.795,15.559,20.118
	c1.875-5.835,7.349-10.059,13.807-10.059C82.273,328.739,88.766,335.231,88.766,343.24z"/>
<circle style="fill:#CFF09E;" cx="271.66" cy="461.323" r="36.175"/>
<path style="fill:#507C5C;" d="M271.656,512c-27.943,0-50.675-22.733-50.675-50.675c0-27.943,22.733-50.675,50.675-50.675
	s50.674,22.733,50.674,50.675S299.596,512,271.656,512z M271.656,439.65c-11.951,0-21.675,9.724-21.675,21.675
	S259.705,483,271.656,483s21.673-9.724,21.673-21.675C293.329,449.372,283.607,439.65,271.656,439.65z"/>
<g>
</g>
<g>
</g>
<g>
</g>
<g>
</g>
<g>
</g>
<g>
</g>
<g>
</g>
<g>
</g>
<g>
</g>
<g>
</g>
<g>
</g>
<g>
</g>
<g>
</g>
<g>
</g>
<g>
</g>
</svg>
