<?xml version="1.0" encoding="utf-8"?><svg version="1.1" id="Layer_1" xmlns="http://www.w3.org/2000/svg" xmlns:xlink="http://www.w3.org/1999/xlink" x="0px" y="0px" width="122.88px" height="69.291px" viewBox="0 0 122.88 69.291" enable-background="new 0 0 122.88 69.291" xml:space="preserve"><g><path fill-rule="evenodd" clip-rule="evenodd" d="M83.452,36.159l4.794,11.717l12.623,0.938l-9.66,8.181l3.009,12.296l-10.766-6.66 l-10.766,6.66l3.008-12.296l-9.662-8.181l12.625-0.938L83.452,36.159L83.452,36.159z M105.463,0l4.794,11.717l12.623,0.938 l-9.66,8.18l3.008,12.296l-10.765-6.661l-10.766,6.661l3.008-12.296l-9.661-8.18l12.625-0.939L105.463,0L105.463,0z M17.419,0 l4.794,11.717l12.624,0.938l-9.66,8.18l3.008,12.296l-10.766-6.661L6.654,33.132l3.008-12.296L0,12.655l12.625-0.939L17.419,0 L17.419,0z M61.44,0l4.795,11.717l12.623,0.938l-9.66,8.18l3.008,12.296L61.44,26.471l-10.765,6.661l3.008-12.296l-9.662-8.18 l12.625-0.939L61.44,0L61.44,0z M39.43,36.159l4.794,11.717l12.624,0.938l-9.66,8.181l3.008,12.296l-10.765-6.66l-10.765,6.66 l3.008-12.296l-9.662-8.181l12.625-0.938L39.43,36.159L39.43,36.159z"/></g></svg>